<svg width="15" height="9" viewBox="0 0 15 9" fill="none" xmlns="http://www.w3.org/2000/svg">
<g clip-path="url(#clip0)">
<path d="M1.44781 5.27732L12.0591 5.27732L9.72786 7.49001C9.4063 7.79521 9.4063 8.25301 9.72786 8.55821C10.0494 8.86341 10.5317 8.86341 10.8533 8.55821L14.5512 5.04842C14.8727 4.74322 14.8727 4.28542 14.5512 3.98022L10.8533 0.470429C10.5317 0.16523 10.0494 0.16523 9.72786 0.470429C9.4063 0.775628 9.4063 1.23343 9.72786 1.53863L12.0591 3.75132L1.44781 3.75132C1.04586 3.75132 0.643917 4.05652 0.643917 4.51432C0.643916 4.97212 1.04586 5.27732 1.44781 5.27732Z" fill="#4089ED"/>
</g>
<defs>
<clipPath id="clip0">
<rect width="14.1484" height="8.54558" fill="white" transform="translate(14.7924 8.78711) rotate(-180)"/>
</clipPath>
</defs>
</svg>
